<?xml version="1.0" encoding="iso-8859-1"?>
<!-- Generator: Adobe Illustrator 19.2.1, SVG Export Plug-In . SVG Version: 6.00 Build 0)  -->
<svg xmlns="http://www.w3.org/2000/svg" xmlns:xlink="http://www.w3.org/1999/xlink" version="1.1" id="Layer_1" x="0px" y="0px" viewBox="0 0 40 40" style="enable-background:new 0 0 40 40;" xml:space="preserve" width="80px" height="80px">
<g>
	<rect x="2.5" y="2.5" style="fill:#F78F8F;" width="35" height="35"/>
	<g>
		<path style="fill:#C74343;" d="M37,3v34H3V3H37 M38,2H2v36h36V2L38,2z"/>
	</g>
</g>
<path style="fill:#FFFFFF;" d="M20.499,25.654c-1.428,1.761-3.458,2.654-6.035,2.654c-4.583,0-8.31-3.727-8.31-8.308  s3.727-8.308,8.31-8.308c1.866,0,3.662,0.622,5.119,1.764l-1.678,1.678c-1.004-0.71-2.207-1.097-3.441-1.097  C11.175,14.038,8.5,16.713,8.5,20s2.675,5.962,5.964,5.962c2.589,0,4.664-1.515,5.414-3.954l0.236-0.768h-5.057v-2.214l7.297,0.011  C22.599,20.917,22.14,23.632,20.499,25.654z"/>
<rect x="29" y="15" style="fill:#FFFFFF;" width="2" height="10"/>
<rect x="29" y="15" transform="matrix(-1.836970e-16 1 -1 -1.836970e-16 50 -10)" style="fill:#FFFFFF;" width="2" height="10"/>
</svg>
