<?xml version="1.0" encoding="iso-8859-1"?>
<!-- Generator: Adobe Illustrator 19.2.1, SVG Export Plug-In . SVG Version: 6.00 Build 0)  -->
<svg xmlns="http://www.w3.org/2000/svg" xmlns:xlink="http://www.w3.org/1999/xlink" version="1.1" id="Layer_1" x="0px" y="0px" viewBox="0 0 40 40" style="enable-background:new 0 0 40 40;" xml:space="preserve" width="80px" height="80px">
<g>
	<rect x="2.5" y="2.5" style="fill:#8BB7F0;" width="35" height="35"/>
	<path style="fill:#4E7AB5;" d="M37,3v34H3V3H37 M38,2H2v36h36V2L38,2z"/>
</g>
<polygon style="fill:#FFFFFF;" points="8,16.077 13.538,16.077 13.538,27.085 13.538,32 8,32 "/>
<path style="fill:#FFFFFF;" d="M10.769,14.462L10.769,14.462C9.108,14.462,8,13.285,8,11.831s1.108-2.562,2.769-2.562  s2.7,1.108,2.769,2.562C13.538,13.285,12.5,14.462,10.769,14.462z"/>
<path style="fill:#FFFFFF;" d="M32.027,32h-5.468c0,0,0-8.27,0-8.885s-0.068-2.734-2.392-2.734c-2.05,0-2.392,1.982-2.392,2.734  s0,8.885,0,8.885h-5.468V16.281h5.468v2.119c0,0,1.094-2.119,4.306-2.119c3.281,0,5.946,2.255,5.946,6.834V32z"/>
</svg>
