<?xml version="1.0" encoding="iso-8859-1"?>
<!-- Generator: Adobe Illustrator 19.0.0, SVG Export Plug-In . SVG Version: 6.00 Build 0)  -->
<svg version="1.1" id="Layer_1" xmlns="http://www.w3.org/2000/svg" xmlns:xlink="http://www.w3.org/1999/xlink" x="0px" y="0px"
	 viewBox="0 0 512 512" style="enable-background:new 0 0 512 512;" xml:space="preserve">
<polygon style="fill:#AC92EA;" points="461,274.992 461,190.992 419,190.992 419,147.992 373,146.992 376,109.992 419,105.992 
	419,66.992 368,59.992 368,104.992 331,110.992 331,149.992 184,150.992 184,105.992 144,106.992 138,66.992 98,66.992 97,109.992 
	134,109.992 144,141.992 93,150.992 93,187.992 42.672,195.992 49,280.992 11,280.992 6,402.992 13,402.992 53,404.992 51,317.992 
	97,316.992 103,404.992 136,410.992 141,449.992 229,442.992 225,402.992 139,404.992 141,360.992 375,359.992 372,398.992 
	284,404.992 286,449.992 373,449.992 378,407.992 415,407.992 416,317.992 461,314.992 461,407.992 505,407.992 505,275.992 "/>
<g>
	<rect x="135.33" y="190.66" style="fill:#424953;" width="42.672" height="38"/>
	<rect x="333.33" y="190.66" style="fill:#424953;" width="38" height="42.672"/>
</g>
<path d="M128,245.336h64v-64h-64V245.336z M149.328,202.664h21.344v21.328h-21.344V202.664z"/>
<path d="M469.328,266.664v-85.328h-42.656v-42.672H384v-21.328h42.672v-64h-64v42.656H320v42.672H192V95.992h-42.672V53.336h-64v64
	H128v21.328H85.328v42.672H42.672v85.328H0v149.328h64v-85.328h21.328v85.328H128v42.672h106.672v-64h-85.344v-21.328h213.344
	v21.328h-85.344v64H384v-42.672h42.672v-85.328H448v85.328h64V266.664H469.328z M384,74.664h21.328v21.328H384V74.664z
	 M362.672,437.336h-64v-21.344h64V437.336z M106.672,95.992V74.664H128v21.328C128,95.992,106.672,95.992,106.672,95.992z
	 M213.328,415.992v21.344h-64v-21.344H213.328z M490.672,394.664h-21.344v-85.328h-64v85.328H384v-42.672H128v42.672h-21.328
	v-85.328h-64v85.328H21.328V287.992H64v-85.328h42.672v-42.672h42.656v-42.656h21.344v42.656h170.656v-42.656h21.344v42.656h42.656
	v42.672H448v85.328h42.672V394.664z"/>
<path d="M320,245.336h64v-64h-64V245.336z M341.328,202.664h21.344v21.328h-21.344V202.664z"/>
<g>
</g>
<g>
</g>
<g>
</g>
<g>
</g>
<g>
</g>
<g>
</g>
<g>
</g>
<g>
</g>
<g>
</g>
<g>
</g>
<g>
</g>
<g>
</g>
<g>
</g>
<g>
</g>
<g>
</g>
</svg>
