<?xml version="1.0" encoding="iso-8859-1"?>
<!-- Generator: Adobe Illustrator 19.0.0, SVG Export Plug-In . SVG Version: 6.00 Build 0)  -->
<svg version="1.1" id="Capa_1" xmlns="http://www.w3.org/2000/svg" xmlns:xlink="http://www.w3.org/1999/xlink" x="0px" y="0px"
	 viewBox="0 0 469.333 469.333" style="enable-background:new 0 0 469.333 469.333;" xml:space="preserve">
<path style="fill:#303C42;" d="M458.667,298.667H320v-128h138.667c5.896,0,10.667-4.771,10.667-10.667
	c0-5.896-4.771-10.667-10.667-10.667H320V10.667C320,4.771,315.229,0,309.333,0s-10.667,4.771-10.667,10.667v138.667h-128V10.667
	C170.667,4.771,165.896,0,160,0c-5.896,0-10.667,4.771-10.667,10.667v138.667H10.667C4.771,149.333,0,154.104,0,160
	c0,5.896,4.771,10.667,10.667,10.667h138.667v128H10.667C4.771,298.667,0,303.438,0,309.333S4.771,320,10.667,320h138.667v138.667
	c0,5.896,4.771,10.667,10.667,10.667c5.896,0,10.667-4.771,10.667-10.667V320h128v138.667c0,5.896,4.771,10.667,10.667,10.667
	S320,464.563,320,458.667V320h138.667c5.896,0,10.667-4.771,10.667-10.667S464.563,298.667,458.667,298.667z M170.667,298.667v-128
	h128v128H170.667z"/>
<g>
	<path style="fill:#7CB342;" d="M249.75,234.667l24.458-24.458c4.167-4.167,4.167-10.917,0-15.083
		c-4.167-4.167-10.917-4.167-15.083,0l-24.458,24.458l-24.458-24.458c-4.167-4.167-10.917-4.167-15.083,0
		c-4.167,4.167-4.167,10.917,0,15.083l24.458,24.458l-24.458,24.458c-4.167,4.167-4.167,10.917,0,15.083
		c2.083,2.083,4.813,3.125,7.542,3.125s5.458-1.042,7.542-3.125l24.458-24.458l24.458,24.458c2.083,2.083,4.813,3.125,7.542,3.125
		c2.729,0,5.458-1.042,7.542-3.125c4.167-4.167,4.167-10.917,0-15.083L249.75,234.667z"/>
	<path style="fill:#7CB342;" d="M344.458,124.875c2.083,2.083,4.813,3.125,7.542,3.125c2.729,0,5.458-1.042,7.542-3.125L384,100.417
		l24.458,24.458c2.083,2.083,4.813,3.125,7.542,3.125c2.729,0,5.458-1.042,7.542-3.125c4.167-4.167,4.167-10.917,0-15.083
		l-24.458-24.458l24.458-24.458c4.167-4.167,4.167-10.917,0-15.083c-4.167-4.167-10.917-4.167-15.083,0L384,70.25l-24.458-24.458
		c-4.167-4.167-10.917-4.167-15.083,0s-4.167,10.917,0,15.083l24.458,24.458l-24.458,24.458
		C340.292,113.958,340.292,120.708,344.458,124.875z"/>
</g>
<g>
	<path style="fill:#1E88E5;" d="M85.333,128C108.854,128,128,108.865,128,85.333s-19.146-42.667-42.667-42.667
		S42.667,61.802,42.667,85.333S61.813,128,85.333,128z M85.333,64c11.771,0,21.333,9.573,21.333,21.333s-9.563,21.333-21.333,21.333
		S64,97.094,64,85.333S73.563,64,85.333,64z"/>
	<path style="fill:#1E88E5;" d="M384,341.333c-23.521,0-42.667,19.135-42.667,42.667s19.146,42.667,42.667,42.667
		c23.521,0,42.667-19.135,42.667-42.667S407.521,341.333,384,341.333z M384,405.333c-11.771,0-21.333-9.573-21.333-21.333
		c0-11.76,9.563-21.333,21.333-21.333c11.771,0,21.333,9.573,21.333,21.333C405.333,395.76,395.771,405.333,384,405.333z"/>
</g>
<linearGradient id="SVGID_1_" gradientUnits="userSpaceOnUse" x1="-66.3928" y1="618.1432" x2="-45.5536" y2="608.4302" gradientTransform="matrix(21.3333 0 0 -21.3333 1430.1112 13315.2227)">
	<stop  offset="0" style="stop-color:#FFFFFF;stop-opacity:0.2"/>
	<stop  offset="1" style="stop-color:#FFFFFF;stop-opacity:0"/>
</linearGradient>
<path style="fill:url(#SVGID_1_);" d="M458.667,298.667H320v-128h138.667c5.896,0,10.667-4.771,10.667-10.667
	c0-5.896-4.771-10.667-10.667-10.667H320V10.667C320,4.771,315.229,0,309.333,0s-10.667,4.771-10.667,10.667v138.667h-128V10.667
	C170.667,4.771,165.896,0,160,0c-5.896,0-10.667,4.771-10.667,10.667v138.667H10.667C4.771,149.333,0,154.104,0,160
	c0,5.896,4.771,10.667,10.667,10.667h138.667v128H10.667C4.771,298.667,0,303.438,0,309.333S4.771,320,10.667,320h138.667v138.667
	c0,5.896,4.771,10.667,10.667,10.667c5.896,0,10.667-4.771,10.667-10.667V320h128v138.667c0,5.896,4.771,10.667,10.667,10.667
	S320,464.563,320,458.667V320h138.667c5.896,0,10.667-4.771,10.667-10.667S464.563,298.667,458.667,298.667z M298.667,298.667h-128
	v-128h128V298.667z M195.125,274.208c2.083,2.083,4.813,3.125,7.542,3.125s5.458-1.042,7.542-3.125l24.458-24.458l24.458,24.458
	c2.083,2.083,4.813,3.125,7.542,3.125c2.729,0,5.458-1.042,7.542-3.125c4.167-4.167,4.167-10.917,0-15.083l-24.458-24.458
	l24.458-24.458c4.167-4.167,4.167-10.917,0-15.083c-4.167-4.167-10.917-4.167-15.083,0l-24.458,24.458l-24.458-24.458
	c-4.167-4.167-10.917-4.167-15.083,0c-4.167,4.167-4.167,10.917,0,15.083l24.458,24.458l-24.458,24.458
	C190.958,263.292,190.958,270.042,195.125,274.208z M344.458,124.875c2.083,2.083,4.813,3.125,7.542,3.125
	c2.729,0,5.458-1.042,7.542-3.125L384,100.417l24.458,24.458c2.083,2.083,4.813,3.125,7.542,3.125c2.729,0,5.458-1.042,7.542-3.125
	c4.167-4.167,4.167-10.917,0-15.083l-24.458-24.458l24.458-24.458c4.167-4.167,4.167-10.917,0-15.083
	c-4.167-4.167-10.917-4.167-15.083,0L384,70.25l-24.458-24.458c-4.167-4.167-10.917-4.167-15.083,0s-4.167,10.917,0,15.083
	l24.458,24.458l-24.458,24.458C340.292,113.958,340.292,120.708,344.458,124.875z M85.333,128C108.854,128,128,108.865,128,85.333
	s-19.146-42.667-42.667-42.667S42.667,61.802,42.667,85.333S61.813,128,85.333,128z M85.333,64c11.771,0,21.333,9.573,21.333,21.333
	s-9.563,21.333-21.333,21.333S64,97.094,64,85.333S73.563,64,85.333,64z M384,341.333c-23.521,0-42.667,19.135-42.667,42.667
	s19.146,42.667,42.667,42.667c23.521,0,42.667-19.135,42.667-42.667S407.521,341.333,384,341.333z M384,405.333
	c-11.771,0-21.333-9.573-21.333-21.333c0-11.76,9.563-21.333,21.333-21.333c11.771,0,21.333,9.573,21.333,21.333
	C405.333,395.76,395.771,405.333,384,405.333z"/>
<g>
</g>
<g>
</g>
<g>
</g>
<g>
</g>
<g>
</g>
<g>
</g>
<g>
</g>
<g>
</g>
<g>
</g>
<g>
</g>
<g>
</g>
<g>
</g>
<g>
</g>
<g>
</g>
<g>
</g>
</svg>
